<svg width="75" height="81" viewBox="0 0 75 81" fill="none" xmlns="http://www.w3.org/2000/svg">
<g filter="url(#filter0_d_3_91)">
<path fill-rule="evenodd" clip-rule="evenodd" d="M42.0651 52.8438C53.42 50.642 61.9934 40.646 61.9934 28.6476C61.9934 15.0351 50.9583 4 37.3458 4C23.7333 4 12.6982 15.0351 12.6982 28.6476C12.6982 40.7838 21.4696 50.8713 33.0187 52.9166L37.6702 58.8084L42.0651 52.8438Z" fill="white"/>
</g>
<path d="M44.0757 13.9146H30.5558C29.158 13.9146 28.0208 15.0518 28.0208 16.4496V22.4209H46.6107V16.4496C46.6107 15.0518 45.4736 13.9146 44.0757 13.9146ZM33.0908 18.9846C33.0908 19.4517 32.7129 19.8296 32.2458 19.8296C31.7787 19.8296 31.4008 19.4517 31.4008 18.9846V17.2946C31.4008 16.8276 31.7787 16.4496 32.2458 16.4496C32.7129 16.4496 33.0908 16.8276 33.0908 17.2946V18.9846ZM28.0208 38.5322C28.0208 39.93 29.158 41.0672 30.5558 41.0672H31.4008V41.9122C31.4008 42.3792 31.7787 42.7572 32.2458 42.7572C32.7129 42.7572 33.0908 42.3792 33.0908 41.9122V41.0672H41.5408V41.9122C41.5408 42.3792 41.9187 42.7572 42.3858 42.7572C42.8528 42.7572 43.2307 42.3792 43.2307 41.9122V41.0672H44.0757C45.4736 41.0672 46.6107 39.93 46.6107 38.5322V24.1109H28.0208V38.5322ZM34.6983 32.0245C34.2939 31.7918 34.1553 31.2752 34.3896 30.8709C34.6223 30.4665 35.1405 30.3296 35.5433 30.5622L36.4708 31.0978V30.0259C36.4708 29.5588 36.8487 29.1809 37.3158 29.1809C37.7828 29.1809 38.1608 29.5588 38.1608 30.0259V31.0978L39.0883 30.5622C39.491 30.3279 40.0109 30.4648 40.2419 30.8709C40.4763 31.2752 40.3376 31.7918 39.9333 32.0245L39.0044 32.5609L39.9333 33.0972C40.3376 33.3299 40.4763 33.8465 40.2419 34.2509C40.0105 34.6547 39.492 34.7937 39.0883 34.5595L38.1608 34.024V35.0959C38.1608 35.5629 37.7828 35.9409 37.3158 35.9409C36.8487 35.9409 36.4708 35.5629 36.4708 35.0959V34.024L35.5433 34.5595C35.1404 34.7933 34.6214 34.6553 34.3896 34.2509C34.1553 33.8465 34.2939 33.3299 34.6983 33.0972L35.6271 32.5609L34.6983 32.0245ZM31.4008 26.6459C31.4008 26.1788 31.7787 25.8009 32.2458 25.8009C32.7129 25.8009 33.0908 26.1788 33.0908 26.6459V28.3359C33.0908 28.803 32.7129 29.1809 32.2458 29.1809C31.7787 29.1809 31.4008 28.803 31.4008 28.3359V26.6459Z" fill="#FB8B01"/>
<circle cx="37.3458" cy="71.4019" r="3.59813" fill="#0B704E" stroke="#6F9D80"/>
<defs>
<filter id="filter0_d_3_91" x="0.0796299" y="0.394682" width="74.5324" height="80.0456" filterUnits="userSpaceOnUse" color-interpolation-filters="sRGB">
<feFlood flood-opacity="0" result="BackgroundImageFix"/>
<feColorMatrix in="SourceAlpha" type="matrix" values="0 0 0 0 0 0 0 0 0 0 0 0 0 0 0 0 0 0 127 0" result="hardAlpha"/>
<feOffset dy="9.01329"/>
<feGaussianBlur stdDeviation="6.30931"/>
<feComposite in2="hardAlpha" operator="out"/>
<feColorMatrix type="matrix" values="0 0 0 0 0 0 0 0 0 0 0 0 0 0 0 0 0 0 0.08 0"/>
<feBlend mode="normal" in2="BackgroundImageFix" result="effect1_dropShadow_3_91"/>
<feBlend mode="normal" in="SourceGraphic" in2="effect1_dropShadow_3_91" result="shape"/>
</filter>
</defs>
</svg>
